<mxfile host="app.diagrams.net" agent="Mozilla/5.0 (Macintosh; Intel Mac OS X 10_15_7) AppleWebKit/605.1.15 (KHTML, like Gecko) Version/18.6 Safari/605.1.15" version="28.1.0">
  <diagram name="Page-1" id="WtUo-6KGtRcZflVa7rxI">
    <mxGraphModel dx="851" dy="574" grid="1" gridSize="10" guides="1" tooltips="1" connect="1" arrows="1" fold="1" page="1" pageScale="1" pageWidth="827" pageHeight="1169" math="0" shadow="0">
      <root>
        <mxCell id="0" />
        <mxCell id="1" parent="0" />
        <mxCell id="7f4_Q5a_FZrKF66Fbd-7-3" value="AlmaLinux Build System" style="ellipse;whiteSpace=wrap;html=1;aspect=fixed;fillColor=#B4C4CF;strokeColor=#082336;fontFamily=montserrat;strokeWidth=2;fontStyle=1;fontColor=#082336;" parent="1" vertex="1">
          <mxGeometry x="340" y="240" width="114" height="114" as="geometry" />
        </mxCell>
        <mxCell id="7f4_Q5a_FZrKF66Fbd-7-4" value="Sources / CentOS git" style="shape=cylinder3;whiteSpace=wrap;html=1;boundedLbl=1;backgroundOutline=1;size=15;fillColor=#B4C4CF;strokeColor=#082336;fontFamily=montserrat;strokeWidth=2;fontStyle=1;fontColor=#082336;" parent="1" vertex="1">
          <mxGeometry x="260" y="380" width="110" height="80" as="geometry" />
        </mxCell>
        <mxCell id="7f4_Q5a_FZrKF66Fbd-7-5" value="Autopatch service" style="shape=cylinder3;whiteSpace=wrap;html=1;boundedLbl=1;backgroundOutline=1;size=15;fillColor=#B4C4CF;strokeColor=#082336;fontFamily=montserrat;strokeWidth=2;fontStyle=1;fontColor=#082336;" parent="1" vertex="1">
          <mxGeometry x="540" y="630" width="110" height="80" as="geometry" />
        </mxCell>
        <mxCell id="7f4_Q5a_FZrKF66Fbd-7-13" style="edgeStyle=orthogonalEdgeStyle;rounded=0;orthogonalLoop=1;jettySize=auto;html=1;fillColor=#ffcccc;strokeColor=light-dark(#082336,#1F2021);fontFamily=montserrat;endArrow=blockThin;endFill=0;" parent="1" source="7f4_Q5a_FZrKF66Fbd-7-6" target="7f4_Q5a_FZrKF66Fbd-7-3" edge="1">
          <mxGeometry relative="1" as="geometry">
            <mxPoint x="595" y="290" as="targetPoint" />
            <Array as="points">
              <mxPoint x="595" y="300" />
            </Array>
          </mxGeometry>
        </mxCell>
        <mxCell id="7f4_Q5a_FZrKF66Fbd-7-16" value="Git-tag trigger" style="edgeLabel;html=1;align=center;verticalAlign=middle;resizable=0;points=[];fontColor=light-dark(#082336,#1F2021);fontFamily=montserrat;" parent="7f4_Q5a_FZrKF66Fbd-7-13" vertex="1" connectable="0">
          <mxGeometry x="0.0262" y="1" relative="1" as="geometry">
            <mxPoint x="-44" y="-11" as="offset" />
          </mxGeometry>
        </mxCell>
        <mxCell id="7f4_Q5a_FZrKF66Fbd-7-6" value="AlmaLinux Git" style="shape=cylinder3;whiteSpace=wrap;html=1;boundedLbl=1;backgroundOutline=1;size=15;fillColor=#B4C4CF;strokeColor=#082336;fontFamily=montserrat;strokeWidth=2;fontStyle=1;fontColor=#082336;" parent="1" vertex="1">
          <mxGeometry x="540" y="400" width="110" height="80" as="geometry" />
        </mxCell>
        <mxCell id="7f4_Q5a_FZrKF66Fbd-7-7" value="Git Updater" style="shape=cylinder3;whiteSpace=wrap;html=1;boundedLbl=1;backgroundOutline=1;size=15;fillColor=#B4C4CF;strokeColor=#082336;fontFamily=montserrat;strokeWidth=2;fontStyle=1;fontColor=#082336;" parent="1" vertex="1">
          <mxGeometry x="260" y="520" width="110" height="80" as="geometry" />
        </mxCell>
        <mxCell id="7f4_Q5a_FZrKF66Fbd-7-11" style="edgeStyle=orthogonalEdgeStyle;rounded=0;orthogonalLoop=1;jettySize=auto;html=1;entryX=0;entryY=0.5;entryDx=0;entryDy=0;entryPerimeter=0;fillColor=#ffcccc;strokeColor=light-dark(#082336,#1F2021);fontFamily=montserrat;endArrow=blockThin;endFill=0;" parent="1" source="7f4_Q5a_FZrKF66Fbd-7-7" target="7f4_Q5a_FZrKF66Fbd-7-6" edge="1">
          <mxGeometry relative="1" as="geometry" />
        </mxCell>
        <mxCell id="7f4_Q5a_FZrKF66Fbd-7-15" style="edgeStyle=orthogonalEdgeStyle;rounded=0;orthogonalLoop=1;jettySize=auto;html=1;entryX=0.5;entryY=0;entryDx=0;entryDy=0;entryPerimeter=0;fillColor=#ffcccc;strokeColor=light-dark(#082336,#1F2021);fontFamily=montserrat;endArrow=blockThin;endFill=0;" parent="1" source="7f4_Q5a_FZrKF66Fbd-7-4" target="7f4_Q5a_FZrKF66Fbd-7-7" edge="1">
          <mxGeometry relative="1" as="geometry" />
        </mxCell>
        <mxCell id="7f4_Q5a_FZrKF66Fbd-7-17" style="edgeStyle=orthogonalEdgeStyle;rounded=0;orthogonalLoop=1;jettySize=auto;html=1;exitX=0.855;exitY=0;exitDx=0;exitDy=4.35;exitPerimeter=0;entryX=0.855;entryY=1;entryDx=0;entryDy=-4.35;entryPerimeter=0;fillColor=#ffcccc;strokeColor=light-dark(#082336,#1F2021);fontFamily=montserrat;endArrow=blockThin;endFill=0;" parent="1" source="7f4_Q5a_FZrKF66Fbd-7-5" target="7f4_Q5a_FZrKF66Fbd-7-6" edge="1">
          <mxGeometry relative="1" as="geometry" />
        </mxCell>
        <mxCell id="7f4_Q5a_FZrKF66Fbd-7-18" style="edgeStyle=orthogonalEdgeStyle;rounded=0;orthogonalLoop=1;jettySize=auto;html=1;exitX=0.145;exitY=1;exitDx=0;exitDy=-4.35;exitPerimeter=0;entryX=0.145;entryY=0;entryDx=0;entryDy=4.35;entryPerimeter=0;fillColor=#ffcccc;strokeColor=light-dark(#082336,#1F2021);fontFamily=montserrat;endArrow=blockThin;endFill=0;" parent="1" source="7f4_Q5a_FZrKF66Fbd-7-6" target="7f4_Q5a_FZrKF66Fbd-7-5" edge="1">
          <mxGeometry relative="1" as="geometry" />
        </mxCell>
        <mxCell id="7f4_Q5a_FZrKF66Fbd-7-19" value="Git-tag&lt;div&gt;trigger&lt;/div&gt;" style="edgeLabel;html=1;align=center;verticalAlign=middle;resizable=0;points=[];rotation=0;fontColor=light-dark(#082336,#1F2021);fontFamily=montserrat;" parent="1" vertex="1" connectable="0">
          <mxGeometry x="530" y="540" as="geometry" />
        </mxCell>
        <mxCell id="7f4_Q5a_FZrKF66Fbd-7-20" value="Modified&lt;div&gt;source&lt;/div&gt;" style="edgeLabel;html=1;align=center;verticalAlign=middle;resizable=0;points=[];rotation=0;fontColor=light-dark(#082336,#1F2021);fontFamily=montserrat;" parent="1" vertex="1" connectable="0">
          <mxGeometry x="660" y="540" as="geometry" />
        </mxCell>
        <mxCell id="7f4_Q5a_FZrKF66Fbd-7-22" value="Updated&lt;div&gt;source&lt;/div&gt;" style="edgeLabel;html=1;align=center;verticalAlign=middle;resizable=0;points=[];rotation=0;fontColor=light-dark(#082336,#1F2021);fontFamily=montserrat;" parent="1" vertex="1" connectable="0">
          <mxGeometry x="280" y="490" as="geometry" />
        </mxCell>
        <mxCell id="7f4_Q5a_FZrKF66Fbd-7-23" value="Updated&lt;div&gt;source&lt;/div&gt;" style="edgeLabel;html=1;align=center;verticalAlign=middle;resizable=0;points=[];rotation=0;fontColor=light-dark(#082336,#1F2021);fontFamily=montserrat;" parent="1" vertex="1" connectable="0">
          <mxGeometry x="430" y="500" as="geometry" />
        </mxCell>
      </root>
    </mxGraphModel>
  </diagram>
</mxfile>
